<?xml version="1.0" encoding="UTF-8"?><svg id="a" xmlns="http://www.w3.org/2000/svg" viewBox="0 0 1079 261.77"><defs><style>.b{fill:#ce572e;}</style></defs><path class="b" d="M667.7,198.39c5.52-6.3,10.13-13.41,13.64-21.14,.16-.36,.33-.72,.49-1.08,.28-.63,.54-1.26,.81-1.9,.36-.87,.7-1.75,1.04-2.63,.07-.18,.14-.36,.2-.54,4.64-12.56,6.39-26.24,4.5-40-1.54-13.38-6.4-25.83-13.68-36.59-.55-.82-1.13-1.63-1.71-2.44-.08-.12-.16-.23-.25-.35-2.27-3.13-4.78-6.12-7.48-8.95-.05-.06-.1-.11-.16-.16-.44-.46-.87-.93-1.32-1.37-.16-.16-.33-.3-.49-.46-8.2-8.1-18.16-14.65-29.64-18.91,.45,.17,.88,.36,1.32,.54-.82-.32-1.64-.64-2.46-.94,.38,.13,.76,.26,1.14,.4-.53-.2-1.07-.38-1.6-.57-.06-.02-.11-.04-.17-.06-9.13-3.27-18.87-5.01-28.85-4.87l-14,.03c-25.34,.04-58.19,.04-79.45,.05,.06,0,.11,.03,.17,.04h-.17s.1,0,.28,.03c.02,0,.04,.01,.06,.01h.04c.06,0,.12,.02,.19,.03-.05,0-.09,0-.14,0,3.97,.79,7.29,4.04,8.7,7.91,1.57,3.97,1.88,8.31,1.81,12.55l.02,25.56c-.08,17.59,.24,59.65-.06,76.67-2.22,41.88-41.22,51.92-76.1,42.19-23.56-6.81-31.35-27.13-30.44-49.92-.24-5.91,.5-107.12-.17-115.23-.27,.27-135.97-.52-143.78,.1,0-.01-.18-.26-.18-.26-8.99,8.86-13.13,21.59-14.62,33.87-.46,3.93-.72,7.91-.48,11.86-18.05-9.36-38.67-13.08-58.88-12.66-30.01,.68-70.03,12.85-59.7,50.8,11.44,34.86,79.76,30.63,109.25,45.91,9.09,4.15,17.42,11.64,18.8,21.97,1.3,9.96-1.26,20.56-7.6,28.44-13.13,15.94-35.36,20.45-55.1,21.03-20.16,.66-41.37-5.64-54.76-21.37-6.51-7.43-11.94-18-13.56-26.89l-.99-.28c-3.95,7.31-12.9,10.49-20.51,12.56-17.14,4.74-57.12,2.27-75.39,2.83-10.76,1.01-13.48-6.47-13.43-15.78-.01-15.92,.05-58.09,.03-75.14,4.77,0,37.18,.02,37.18,.02,12.99-.51,29.49,1.28,33.65,15.9-.01-4.74,.03-31.48,.02-36.21l-1.27,3.23c-5.47,11.99-20.83,13.06-32.39,12.69,0,0-35.79-.02-37.1-.02,0-5.55,.02-44.28,.02-44.28,.3-8.2-1.98-20.65,7.68-24.03,.83-.25,1.7-.38,2.57-.37h2.81c17.43,.14,38.8-.26,56.16,.2,12.66,.87,26.56,2.39,36.55,10.88,1.3,1.2,2.55,2.67,3.19,4.12l1.46-.42-4.18-18.66-.13-.6h-.62L.03,55.67l-.02,1.65c7.76,1.03,9.99,10.03,10.16,16.79v22.65c-.09,22.6,.11,68.08-.03,90.69l-.04,22.64c-.17,6.73-2.4,15.63-10.11,16.75l.03,1.81s.02,0,.03,0H.06s.09-.01,.13-.02c4.7-.37,125.72,.81,127.51-.43,9.48,19.66,31.39,29.28,51.93,32.26,26.09,3.25,71.6,1.73,90.19-19.04,10.73-11.87,13.18-30.51,7.03-45.11-4.45-9.88-13.68-16.57-23.3-20.88-24.18-10.61-51.2-11.85-76.18-19.18-9.62-2.98-20.25-6.87-25.81-15.73-5.12-8.89-3.22-20.71,1.93-29.2,11.42-16.91,37.84-19.81,56.59-17.17,20.57,3.54,38.7,16.68,51.12,33.1l1.74,2.34-.58-2.84c-2.67-11.38-4.02-23.87-1.41-35.36,3.52-19.28,21.18-28.03,39.07-30.39,5.9-.86,11.85-.98,17.85-.93,6.36-.52,10.12,5.38,10.61,11.11,.7,12.15,.1,76.36,.31,89.8l.02,35.96c-.35,8.34,1.5,18.75-3.5,25.98-1.63,2.34-4.24,4.13-6.98,4.41l.02,1.04h33.13l.02-1.03c-4.11-.45-7.35-3.9-8.8-7.67-1.56-3.9-1.79-8.19-1.73-12.44v-25.68c0-25.59-.07-77.1-.06-102.71-.01-4.22-.17-8.55,1.56-12.46,1.57-3.88,5.39-6.64,9.64-6.38,4.28,.02,8.56-.08,12.81,.14,10.89,.88,28.28,1.71,35.71,10.51,1.27,1.72,1.61,3.72,1.49,5.85l-.06,6.41c-.15,8.4,.02,54.79,0,64.2l.09,25.68c-.17,8.55,.97,17.32,4.58,25.2,11.3,24.8,41.78,30.91,66.52,30.08,28.4-.81,50.16-16.88,52.11-46.38,.62-14.63,.06-36.54,.23-51.37l-.02-51.35c-.3-6.18,1.04-13.48,7.36-16.21,12.39-4.44,20.94,3.22,19.99,15.94,.1,25.59-.08,77.11,.05,102.71v25.68c.34,7.85-1.59,19.08-10.84,20.49v.29l41.33-.02c6.7-.04,15.35,.19,23.64-.23,.33-.02,.66-.04,.99-.06,6.04-.34,11.84-1.04,16.5-2.46,16.27-4.07,30.51-13.01,41.46-24.92,.27-.29,.55-.58,.82-.88,.28-.31,.54-.63,.81-.94Zm-253.86-20.77c0,.33,.02,.65,.03,.96-.01-.32-.02-.64-.03-.96Zm166.83,47.09c-2.15-.08-5.35,.19-7.43-.23-11.07-2.84-8.37-17.16-8.71-25.83,.15-29.72,.5-89.53,.65-119.26,.04-4.82-.33-9.89,1.98-14.21,1.61-3.13,4.9-5.08,8.4-4.98h3.73c4.9,.03,17.62,.04,22.36,.06,44.59-.76,75.56,42.77,73.74,84.83-.19,33.44-21.57,66.91-53.23,76.77-.17,.05-.34,.12-.52,.17-.8,.24-1.62,.45-2.43,.66-.42,.11-.84,.23-1.26,.33-.63,.15-1.27,.27-1.91,.4-.59,.12-1.18,.26-1.77,.36-.55,.1-1.12,.17-1.67,.25-.67,.1-1.34,.21-2.02,.29-.62,.07-1.26,.11-1.89,.17-.62,.05-1.23,.12-1.85,.16-1.26,.07-2.52,.11-3.8,.11-4.88-.01-17.65-.04-22.36-.05Zm-8.21-.36c-.26-.08-.53-.17-.81-.28,.26,.1,.54,.19,.81,.28Zm-1.38-.51c-.36-.17-.73-.37-1.1-.61,.35,.22,.71,.42,1.1,.61Zm113.76-55.6c-.18,.56-.37,1.12-.57,1.68,.19-.56,.39-1.12,.57-1.68Zm3.4-15.12c-.03,.23-.06,.46-.09,.69,.03-.23,.06-.46,.09-.69Zm-.43,2.88c-.11,.64-.22,1.29-.34,1.93,.12-.64,.24-1.28,.34-1.93Zm-.65,3.52c-.24,1.17-.51,2.33-.81,3.49,.29-1.15,.56-2.32,.81-3.49Zm-1.11,4.6c-.22,.83-.45,1.65-.7,2.48,.25-.82,.48-1.65,.7-2.48Zm-48.32-100.55c-.35-.15-.69-.31-1.04-.46,.35,.15,.7,.3,1.04,.46Zm-6.51-2.55c-.49-.17-.98-.32-1.47-.48,.49,.16,.98,.32,1.47,.48Zm-114.56-.32c-.33-.43-.7-.83-1.08-1.23,.37,.36,.73,.77,1.08,1.23Zm1.12,1.7c-.22-.39-.45-.77-.71-1.14,.24,.35,.48,.73,.71,1.14Z"/><path class="b" d="M509.57,56.53c.14,0,.3,.01,.45,.02-.03,0-.07-.02-.1-.02-.11,0-.24,0-.35,0Z"/><path class="b" d="M717.94,210.1c-.09-7.51-.05-15.1-.07-22.65-.06-22.6-.28-68.08-.42-90.69-.04-7.56-.17-15.12-.15-22.67-.04-7.11,2.6-16.46,10.77-17.6-.94,.11-1.81,.35-2.61,.67,1.51-.63,2.61-.67,2.61-.67-10.96,.02-22.04-.2-33.25-.28v.55c8,1.09,10.48,10.37,10.49,17.33,.06,7.53-.04,15.11-.06,22.66-.14,22.59-.27,68.08-.28,90.68-.03,7.54,.03,15.14-.09,22.64-.11,6.73-2.49,15.62-10.1,16.75l.03,1.83,33.25-.05,.04-1.73c-1.57-.16-3.3-.95-4.63-2.03-4.28-3.53-5.38-9.38-5.54-14.75Z"/><path class="b" d="M864.82,67.99c-.43-.26-.86-.51-1.29-.76-.6-.35-1.2-.7-1.8-1.04-.54-.3-1.09-.6-1.64-.89-.58-.31-1.16-.6-1.75-.89-.5-.25-.99-.5-1.49-.74-1.09-.52-2.2-1.02-3.31-1.5-.16-.07-.32-.13-.47-.19-10.44-4.4-21.73-6.79-33.18-6.68,5.58-.03,11.12,.54,16.55,1.64-5.36-1.05-10.89-1.62-16.55-1.64-5.67,.01-11.21,.59-16.57,1.65,5.43-1.1,10.98-1.68,16.57-1.65-11.51-.11-22.86,2.31-33.34,6.77-.05,.02-.11,.04-.16,.07-1.18,.51-2.35,1.03-3.51,1.59-.37,.18-.73,.36-1.09,.55-.73,.36-1.45,.73-2.16,1.11-.47,.25-.95,.51-1.41,.77-.7,.39-1.39,.79-2.07,1.19-.36,.21-.72,.42-1.07,.63-15.4,9.41-27.95,23.5-34.85,40.37-23.95,56.68,18.3,119.91,79.77,119.83,61.54-.07,103.63-63.18,79.65-119.93-6.91-16.84-19.45-30.88-34.82-40.26Zm8.05,130.1c-11.18,13.74-27.52,23.49-45.14,25.7-.08,0-.16,.03-.24,.03-.61,.07-1.23,.11-1.84,.17-1.91,.17-3.83,.28-5.77,.28s-3.76-.11-5.61-.27c-.67-.06-1.34-.1-2.01-.18-.07,0-.13-.02-.2-.03-17.62-2.22-33.96-12.02-45.12-25.78-26.08-31.55-25.74-81.32,.57-112.53,28.08-34.24,76.87-34.12,104.92,.09,26.27,31.23,26.57,81.01,.44,112.51Zm-70.17,23.85c-.43-.12-.86-.23-1.29-.35,.43,.13,.86,.24,1.29,.35Zm-2.76-.83c-.77-.25-1.54-.5-2.3-.78,.76,.28,1.53,.53,2.3,.78Zm-3.05-1.07c-.97-.37-1.93-.75-2.87-1.16,.95,.41,1.91,.79,2.87,1.16Zm-3.29-1.35c-1.01-.45-2.01-.91-3-1.41,.99,.49,1.99,.96,3,1.41Zm-3.49-1.66c-.91-.46-1.81-.95-2.7-1.45,.89,.5,1.79,.99,2.7,1.45Zm-3.64-2c-.68-.4-1.35-.8-2.01-1.22,.67,.42,1.34,.83,2.01,1.22Zm-3.69-2.32c-.35-.24-.7-.47-1.05-.71,.35,.24,.7,.48,1.05,.71Zm75.26-.65c-.29,.2-.57,.39-.86,.59,.29-.19,.58-.39,.86-.59Zm-2.75,1.81c-.6,.38-1.22,.75-1.83,1.11,.62-.36,1.23-.73,1.83-1.11Zm-2.96,1.77c-.83,.47-1.67,.92-2.52,1.35,.85-.43,1.69-.88,2.52-1.35Zm-3.2,1.69c-.93,.46-1.87,.9-2.81,1.31,.95-.42,1.89-.85,2.81-1.31Zm-3.43,1.59c-.88,.38-1.76,.73-2.66,1.07,.89-.34,1.78-.69,2.66-1.07Zm-3.62,1.44c-.67,.24-1.35,.46-2.04,.69,.68-.22,1.36-.44,2.04-.69Zm-3.77,1.24c-.31,.09-.63,.17-.95,.26,.32-.09,.63-.17,.95-.26Zm.64-164.13c-.14-.03-.29-.07-.43-.1,.14,.03,.29,.07,.43,.1Zm-37.63-.11c-.2,.04-.4,.09-.6,.14,.2-.05,.4-.09,.6-.14Z"/><path class="b" d="M972.86,27.86c-17.94-12.21-44.65-4.85-54.71,14.11-10.48,18.35-4.44,45.58,15.89,54.16,12.99,5.92,29.22,2.68,38.61-8.12,2.96-3.11,5.31-6.69,7.23-10.48-3.98,26.36-18.29,52.52-47.56,55.11v.16c1.67,.2,3.33,.29,4.99,.28,25.75,.67,47.42-24.05,51.8-48.56,3.61-19.65,1.55-44.3-16.25-56.66Zm7.94,38.85c-6.44,23.17-34.92,40.75-50.24,14.59-10.98-18.01-5.68-50.61,16.88-55.55-1.73,.37-3.37,.9-4.92,1.57,3.01-1.38,6.25-2.17,9.66-2.17,1.2-.01,2.33,.08,3.44,.21,.72,.09,1.42,.23,2.12,.37,.41,.08,.82,.16,1.22,.26,.62,.16,1.22,.35,1.82,.56,.57,.2,1.14,.41,1.69,.65,.33,.14,.65,.29,.98,.44,13.33,6.64,17.8,25.29,17.35,39.08Z"/><path class="b" d="M947.45,.61c1.51-.33,3.09-.53,4.74-.61-1.66,.07-3.24,.28-4.74,.61Z"/><path class="b" d="M1078.56,90.36c-2.56-32.47-44.43-42.47-65.54-20.48-3.5,3.77-6.17,8.23-8.01,12.99-.69-25.98,14.04-52.26,40.81-58.2-1.57,.33-3.05,.76-4.54,1.2,1.5-.47,3.01-.88,4.54-1.2,0,0,.03-1.31,.03-1.3-13.94-.3-27.27,7.11-36.17,17.71-22.3,25.91-20.44,75.54,12.91,91.52,29.26,13.01,60.51-10.49,55.98-42.25Zm-22.22,38.52c-2.4,1.29-4.95,2.33-7.61,3.06-.12,.03-.25,.05-.38,.07-1.98,.4-4.08,.64-6.35,.64-3.39,0-6.62-.5-9.67-1.41-.31-.1-.62-.17-.92-.27-.3-.1-.59-.23-.89-.34-14.28-5.53-23.3-21.55-24.79-36.76,.78-4.93,3.04-12.52,6.53-17.27,6.85-10.65,20.24-15.21,32.34-12.4,12.54,2.63,20.56,14.56,23.37,26.51,4.09,14.2,.04,30.86-11.63,38.17Z"/></svg>